<svg width="32" height="32" viewBox="0 0 32 32" fill="none" xmlns="http://www.w3.org/2000/svg">
<path d="M26.4812 3.81487L32 13.5091L21.6301 9.69425L16.0668 0L26.4812 3.81487Z" fill="#00755C"/>
<path d="M32 13.509L30.0862 24.7292L26.5703 18.3113L32 13.509Z" fill="#00755C"/>
<path d="M21.452 31.9999H10.548L19.0042 24.6843H30.1307L21.452 31.9999Z" fill="#00755C"/>
<path d="M9.3018 24.6396H1.91376L10.548 32.0001L9.3018 24.6396Z" fill="#00755C"/>
<path d="M0 13.5988L5.56328 3.90454L7.43255 14.8555L1.91377 24.6395L0 13.5988Z" fill="#F4D83E"/>
<path d="M0 13.5988L5.56328 3.90454L7.43255 14.8555L1.91377 24.6395L0 13.5988Z" fill="#00755C"/>
<path d="M12.5063 6.23843L5.56329 3.90463L16.0668 0L12.5063 6.23843Z" fill="#00755C"/>
<path d="M26.4812 3.81487L32 13.5091L21.6301 9.69425L16.0668 0L26.4812 3.81487Z" fill="#00755C"/>
<path d="M26.5702 18.3113L19.0042 24.7741H30.1753L26.5702 18.3113Z" fill="#00C16C"/>
<path d="M1.91376 24.6395L7.43253 14.8555L9.16828 24.6395H1.91376Z" fill="#00C16C"/>
<path d="M12.3727 6.19355L16.0668 0L21.63 9.69425L12.3727 6.19355Z" fill="#00C16C"/>
<path d="M26.5702 18.3114L21.63 9.69434L32 13.5092L26.5702 18.3114Z" fill="#00C16C"/>
<path d="M10.548 32.0001L9.16827 24.6396L19.1377 24.6845L10.548 32.0001Z" fill="#00C16C"/>
<path d="M7.43256 14.8555L5.56329 3.90454L12.3728 6.19346L7.43256 14.8555Z" fill="#00C16C"/>
<path d="M7.43256 14.8556L12.3728 6.1936L21.6301 9.6943L26.5702 18.3114L19.1377 24.6845L9.1683 24.6396L7.43256 14.8556Z" fill="#002E34"/>
<path d="M26.4812 3.81487L32 13.5091L21.6301 9.69425L16.0668 0L26.4812 3.81487Z" fill="#00755C"/>
<path d="M32 13.509L30.0862 24.7292L26.5703 18.3113L32 13.509Z" fill="#00755C"/>
<path d="M21.452 31.9999H10.548L19.0042 24.6843H30.1307L21.452 31.9999Z" fill="#00755C"/>
<path d="M9.3018 24.6396H1.91376L10.548 32.0001L9.3018 24.6396Z" fill="#00755C"/>
<path d="M0 13.5988L5.56328 3.90454L7.43255 14.8555L1.91377 24.6395L0 13.5988Z" fill="#F4D83E"/>
<path d="M0 13.5988L5.56328 3.90454L7.43255 14.8555L1.91377 24.6395L0 13.5988Z" fill="#00755C"/>
<path d="M12.5063 6.23843L5.56329 3.90463L16.0668 0L12.5063 6.23843Z" fill="#00755C"/>
<path d="M26.4812 3.81487L32 13.5091L21.6301 9.69425L16.0668 0L26.4812 3.81487Z" fill="#00755C"/>
<path d="M26.5702 18.3113L19.0042 24.7741H30.1753L26.5702 18.3113Z" fill="#00C16C"/>
<path d="M1.91376 24.6395L7.43253 14.8555L9.16828 24.6395H1.91376Z" fill="#00C16C"/>
<path d="M12.3727 6.19355L16.0668 0L21.63 9.69425L12.3727 6.19355Z" fill="#00C16C"/>
<path d="M26.5702 18.3114L21.63 9.69434L32 13.5092L26.5702 18.3114Z" fill="#00C16C"/>
<path d="M10.548 32.0001L9.16827 24.6396L19.1377 24.6845L10.548 32.0001Z" fill="#00C16C"/>
<path d="M7.43256 14.8555L5.56329 3.90454L12.3728 6.19346L7.43256 14.8555Z" fill="#00C16C"/>
<path d="M7.43256 14.8556L12.3728 6.1936L21.6301 9.6943L26.5702 18.3114L19.1377 24.6845L9.1683 24.6396L7.43256 14.8556Z" fill="#002E34"/>
</svg>
